<svg xmlns="http://www.w3.org/2000/svg" xml:space="preserve" stroke-miterlimit="10" style="fill-rule:nonzero;clip-rule:evenodd;stroke-linecap:round;stroke-linejoin:round" viewBox="0 0 140 153"><path d="M34.688 97.5c.812 16.375 14.5 26.75 35.187 26.75 21.875 0 35.437-10.938 35.437-28.5 0-13.75-7.687-21.375-26-25.5l-10.374-2.375c-11.188-2.562-15.75-6.125-15.75-12.187C53.188 48 60.062 43 70.438 43c9.874 0 16.874 5 18 12.938h15.437c-.75-15.5-14.437-26.376-33.375-26.376-20.187 0-33.562 10.875-33.562 27.25 0 13.438 7.687 21.563 24.062 25.25l11.688 2.688c11.562 2.688 16.5 6.5 16.5 13 0 7.562-7.688 13-18.313 13-11.437 0-19.437-5.188-20.437-13.25z"/></svg>