<svg width="1024" height="1024" viewBox="0 0 1024 1024" fill="none" xmlns="http://www.w3.org/2000/svg">
<style media="(prefers-color-scheme: dark)">
  rect {
    fill: black;
  }
  path {
    fill: white;
  }
</style>
<style media="(prefers-color-scheme: light)">
  rect {
    fill: white;
  }
  path {
    fill: black;
  }
</style>
<g clip-path="url(#clip0_1_5)">
<rect width="1024" height="1024" fill="black"/>
<path d="M524.275 958.264C465.681 958.264 413.106 945.823 366.551 920.94C320.799 896.057 283.876 861.944 255.783 818.6C228.492 774.453 213.242 724.688 210.031 669.304L295.515 663.284C298.726 705.825 310.364 743.551 330.431 776.46C351.301 808.567 378.19 833.449 411.099 851.108C444.811 868.767 483.339 877.596 526.683 877.596C568.422 877.596 604.141 871.977 633.839 860.74C664.341 848.7 687.618 831.443 703.671 808.968C720.527 786.493 728.955 759.604 728.955 728.3C728.955 699.404 722.133 674.12 708.487 652.448C695.645 629.973 671.565 609.505 636.247 591.044C600.93 571.78 548.757 552.917 479.727 534.456C421.132 518.403 373.374 500.744 336.451 481.48C299.528 461.413 272.238 437.333 254.579 409.24C237.723 380.344 229.295 344.224 229.295 300.88C229.295 255.128 240.532 214.593 263.007 179.276C285.482 143.959 317.187 116.267 358.123 96.1999C399.862 75.3306 449.627 64.896 507.419 64.896C566.014 64.896 616.181 77.3373 657.919 102.22C699.658 126.3 732.166 158.808 755.443 199.744C778.721 239.877 792.366 284.425 796.379 333.388L710.895 339.408C707.685 303.288 697.651 270.379 680.795 240.68C664.742 210.981 641.866 187.704 612.167 170.848C583.271 153.992 547.552 145.564 505.011 145.564C446.417 145.564 399.862 159.611 365.347 187.704C331.635 215.797 314.779 252.72 314.779 298.472C314.779 327.368 320.799 351.448 332.839 370.712C345.682 389.976 367.354 406.832 397.855 421.28C429.159 434.925 472.503 449.373 527.887 464.624C600.127 484.691 657.117 506.764 698.855 530.844C741.397 554.121 771.095 582.215 787.951 615.124C805.61 647.231 814.439 685.759 814.439 730.708C814.439 776.46 801.998 816.593 777.115 851.108C752.233 884.82 717.718 911.308 673.571 930.572C630.227 949.033 580.462 958.264 524.275 958.264Z" fill="white"/>
</g>
<defs>
<clipPath id="clip0_1_5">
<rect width="1024" height="1024" fill="white"/>
</clipPath>
</defs>
</svg>
